<svg xmlns="http://www.w3.org/2000/svg" viewBox="0 0 243 273" role="img" aria-label="claw logo">
  <path d="M 176 58 L 176 67 L 174 74 L 162 92 L 161 101 L 162 105 L 168 112 L 174 114 L 181 114 L 187 111 L 193 102 L 194 87 L 186 67 L 178 58 Z M 64 58 L 55 68 L 48 85 L 48 101 L 51 107 L 56 112 L 61 114 L 68 114 L 77 109 L 81 101 L 81 95 L 68 73 L 66 58 Z M 120 29 L 106 55 L 104 67 L 101 73 L 101 84 L 104 91 L 109 96 L 117 99 L 124 99 L 133 95 L 138 90 L 141 83 L 141 75 L 137 67 L 137 61 L 134 52 L 123 30 Z M 118 7 L 7 70 L 6 185 L 7 203 L 9 205 L 118 265 L 123 265 L 234 204 L 235 70 L 123 7 Z M 203 211 L 204 210 L 205 211 L 204 212 Z M 161 152 L 164 155 L 163 161 L 157 166 L 149 167 L 149 162 L 158 153 Z M 78 155 L 81 152 L 84 153 L 93 162 L 94 165 L 91 167 L 83 165 L 79 161 Z M 112 150 L 130 150 L 134 153 L 157 200 L 156 207 L 145 225 L 141 229 L 132 230 L 127 227 L 125 222 L 126 216 L 136 209 L 142 202 L 142 198 L 138 193 L 108 192 L 102 194 L 100 198 L 101 204 L 112 212 L 117 218 L 116 225 L 112 229 L 106 230 L 99 228 L 85 206 L 85 200 L 109 152 Z M 14 74 L 120 14 L 225 72 L 228 75 L 228 119 L 226 119 L 218 104 L 214 102 L 213 113 L 205 123 L 201 131 L 201 143 L 206 153 L 212 159 L 217 162 L 224 162 L 227 160 L 228 161 L 228 198 L 216 206 L 206 211 L 204 210 L 206 201 L 206 191 L 203 180 L 197 171 L 187 161 L 191 154 L 191 148 L 181 135 L 171 126 L 166 126 L 162 129 L 146 113 L 136 113 L 123 118 L 119 118 L 106 113 L 96 113 L 88 120 L 82 128 L 79 129 L 76 126 L 70 127 L 52 146 L 51 154 L 55 161 L 44 172 L 38 182 L 36 189 L 36 203 L 38 211 L 37 212 L 15 200 L 14 161 L 15 160 L 17 162 L 25 162 L 35 154 L 40 145 L 41 133 L 38 125 L 29 113 L 28 103 L 26 103 L 23 106 L 16 119 L 14 119 Z" fill="#fff" fill-rule="evenodd"/>
</svg>
